<?xml version="1.0" standalone="no"?>
<!DOCTYPE svg PUBLIC "-//W3C//DTD SVG 20010904//EN"
 "http://www.w3.org/TR/2001/REC-SVG-20010904/DTD/svg10.dtd">
<svg version="1.0" xmlns="http://www.w3.org/2000/svg"
 width="522.000000pt" height="522.000000pt" viewBox="0 0 522.000000 522.000000"
 preserveAspectRatio="xMidYMid meet">
<metadata>
Created by potrace 1.16, written by Peter Selinger 2001-2019
</metadata>
<g transform="translate(0.000000,522.000000) scale(0.100000,-0.100000)"
fill="#000000" stroke="none">
<path d="M1533 3436 c-23 -24 -23 -24 -23 -379 0 -372 4 -407 42 -407 29 0 46
-22 41 -56 -3 -22 -15 -35 -44 -52 l-39 -23 0 -227 c0 -161 4 -236 13 -255
l12 -27 257 0 c195 0 258 3 262 13 5 10 7 10 12 0 8 -17 145 -18 162 -1 7 7
12 27 12 45 l0 33 90 0 c57 0 90 -4 90 -11 0 -5 5 -7 11 -3 7 4 9 0 5 -14 -4
-11 -1 -30 6 -41 11 -18 23 -21 78 -21 38 0 71 5 78 12 9 9 15 9 24 0 7 -7 40
-12 78 -12 38 0 71 5 78 12 8 8 12 46 12 105 0 85 8 111 25 83 4 -6 11 -7 17
-4 7 5 8 2 3 -6 -6 -9 -4 -12 6 -8 16 6 41 -16 31 -28 -4 -4 1 -4 10 -1 9 3
22 -1 30 -11 9 -11 10 -14 1 -8 -7 4 -13 4 -13 1 0 -3 13 -11 30 -16 16 -6 28
-14 25 -19 -3 -4 5 -10 16 -13 15 -4 20 -11 16 -22 -4 -8 -1 -26 5 -40 10 -23
16 -25 84 -25 49 0 74 4 77 13 4 9 7 9 18 0 9 -10 74 -14 238 -15 l226 -2
-220 -6 -220 -6 223 -2 c143 -1 222 2 222 8 0 6 11 10 24 10 13 0 28 6 34 13
16 19 33 742 19 787 -6 19 -6 21 2 10 8 -11 10 41 9 180 l-2 195 -6 -160 -6
-160 -3 180 c-1 99 -2 224 -1 277 l1 97 -30 15 c-18 10 -56 16 -94 16 -54 0
-67 -4 -86 -24 -20 -21 -22 -33 -21 -117 3 -233 -2 -443 -10 -424 -6 13 -7 2
-3 -29 5 -36 3 -47 -5 -42 -7 4 -12 1 -12 -8 0 -9 -4 -16 -10 -16 -5 0 -10 14
-10 30 0 17 -9 39 -20 50 -20 20 -31 21 -280 18 l-260 -3 0 266 0 265 -35 17
c-50 24 -143 22 -175 -3 -32 -25 -46 -25 -95 0 -43 22 -168 29 -180 10 -4 -6
-10 -8 -15 -5 -4 3 -10 -2 -14 -10 -7 -20 -29 -19 -76 5 -37 19 -59 20 -382
20 l-343 0 -22 -24z m844 -138 c-2 -24 -4 -7 -4 37 0 44 2 63 4 43 2 -21 2
-57 0 -80z m-60 -78 c0 -29 -4 -45 -9 -38 -14 23 -9 88 8 88 1 0 1 -23 1 -50z
m29 -17 c-11 -11 -17 4 -9 23 7 18 8 18 11 1 2 -10 1 -21 -2 -24z m131 30
c-20 -2 -52 -2 -70 0 -17 2 0 4 38 4 39 0 53 -2 32 -4z m1121 0 c-10 -2 -26
-2 -35 0 -10 3 -2 5 17 5 19 0 27 -2 18 -5z m-1534 -23 c-5 -5 -72 -11 -149
-12 -125 -3 -140 -5 -141 -21 -1 -11 0 -12 3 -3 3 12 33 16 151 18 l147 3 0
-77 0 -76 -161 -2 -161 -1 0 91 -1 90 161 0 c104 0 158 -3 151 -10z m444 -7
c-21 -2 -57 -2 -80 0 -24 2 -7 4 37 4 44 0 63 -2 43 -4z m-131 -55 c-3 -8 -6
-5 -6 6 -1 11 2 17 5 13 3 -3 4 -12 1 -19z m245 -23 c7 -57 -2 -104 -18 -98
-20 7 -20 133 0 133 8 0 15 -14 18 -35z m27 -62 c1 -35 -2 -63 -6 -63 -5 0 -8
36 -8 80 0 43 3 72 7 62 4 -9 7 -45 7 -79z m-340 -181 c13 -24 35 -29 48 -9 4
6 10 35 14 62 6 48 6 47 8 -21 0 -39 4 -105 7 -147 l7 -77 83 0 84 0 1 53 0
52 17 -45 c14 -36 23 -46 45 -48 22 -3 27 1 28 20 1 23 1 23 8 -2 l7 -25 234
-6 c129 -4 289 -8 355 -9 99 -3 81 -4 -109 -11 -322 -10 -356 -20 -222 -64 37
-12 71 -27 75 -33 4 -6 27 -14 51 -18 25 -4 54 -12 65 -18 17 -9 11 -12 -40
-16 l-60 -5 -5 -122 c-4 -106 -7 -121 -20 -113 -10 6 -11 10 -2 10 16 0 15
143 -2 190 -12 33 -16 35 -54 32 -22 -1 -53 -9 -68 -17 -16 -8 -37 -15 -46
-15 -35 0 -18 -39 40 -91 58 -53 40 -47 -52 18 -38 27 -45 37 -48 70 l-3 38
-50 0 c-48 0 -50 -1 -53 -30 -5 -50 -13 -63 -23 -37 -13 35 -27 26 -36 -25
l-8 -48 -5 68 -5 69 -85 2 c-47 2 -155 4 -240 6 -124 2 -149 4 -122 12 19 7
32 18 32 28 0 21 35 59 68 71 43 16 10 32 -80 37 -101 7 -72 20 47 21 l79 1
-62 63 c-34 34 -62 66 -62 70 0 4 29 7 65 7 l65 0 1 118 2 117 7 -80 c4 -44
12 -91 19 -103z m-317 141 c-40 -2 -103 -2 -140 0 -37 2 -4 3 73 3 77 0 107
-2 67 -3z m-455 -55 c-3 -7 -5 -2 -5 12 0 14 2 19 5 13 2 -7 2 -19 0 -25z
m213 -152 c0 -2 -7 -9 -15 -16 -12 -10 -15 -10 -15 4 0 9 7 16 15 16 8 0 15
-2 15 -4z m250 -70 l64 -71 -69 67 -70 67 -65 4 -65 3 70 1 70 1 65 -72z
m-463 -28 c-3 -7 -5 -2 -5 12 0 14 2 19 5 13 2 -7 2 -19 0 -25z m190 -10 c-3
-7 -5 -2 -5 12 0 14 2 19 5 13 2 -7 2 -19 0 -25z m1942 -34 c2 -2 -31 -3 -75
-3 -58 1 -70 3 -44 8 33 7 110 3 119 -5z m-1981 -1 c-15 -2 -42 -2 -60 0 -18
2 -6 4 27 4 33 0 48 -2 33 -4z m351 -155 c17 -50 4 -165 -22 -189 -22 -20 -47
-25 -47 -9 0 6 -13 10 -30 10 -20 0 -30 5 -30 15 0 8 -4 15 -10 15 -5 0 -10
11 -10 24 0 17 11 31 38 47 45 28 63 49 56 68 -4 14 22 51 37 51 4 0 12 -15
18 -32z m1420 16 c112 -2 206 -5 209 -8 3 -3 -101 -6 -231 -6 l-237 0 0 -45
c0 -25 -4 -45 -10 -45 -5 0 -10 18 -10 40 0 47 31 86 58 74 9 -4 109 -8 221
-10z m-1836 -11 c-7 -2 -21 -2 -30 0 -10 3 -4 5 12 5 17 0 24 -2 18 -5z m1518
-85 c-2 -88 -11 -86 -11 2 0 40 3 70 7 67 3 -4 5 -35 4 -69z m-1464 -90 c-2
-29 -3 -8 -3 47 0 55 1 79 3 53 2 -26 2 -71 0 -100z m742 -30 l-2 -53 -76 0
c-42 0 -82 4 -88 8 -16 10 -17 69 -1 85 7 7 43 12 91 12 l78 0 -2 -52z m1117
28 c3 -15 -1 -34 -11 -50 -16 -25 -16 -28 0 -53 17 -25 17 -27 -6 -44 -18 -14
-42 -19 -101 -19 l-76 0 5 60 c7 70 -9 117 -40 123 -12 2 33 5 100 6 122 1
123 1 129 -23z m-949 -53 c-2 -16 -4 -5 -4 22 0 28 2 40 4 28 2 -13 2 -35 0
-50z m-837 37 c0 -11 5 -20 11 -20 6 0 9 -7 6 -14 -4 -9 2 -17 14 -21 11 -4
19 -15 19 -29 0 -26 -15 -42 -45 -49 -11 -2 -3 -3 17 -1 20 2 40 0 43 -6 4 -6
-18 -10 -59 -10 l-66 0 0 83 c0 54 3 77 10 67 8 -12 10 -12 16 3 9 24 34 21
34 -3z m228 -77 c2 -15 10 -23 23 -23 10 0 19 -4 19 -10 0 -11 -101 -14 -138
-4 -30 8 -24 23 19 46 43 24 73 20 77 -9z m802 17 c0 -5 -2 -10 -4 -10 -3 0
-8 5 -11 10 -3 6 -1 10 4 10 6 0 11 -4 11 -10z m397 -110 c-1 -75 -9 -102 -19
-62 -4 15 -4 35 1 120 0 12 5 22 10 22 5 0 9 -36 8 -80z m-1194 33 c-13 -2
-33 -2 -45 0 -13 2 -3 4 22 4 25 0 35 -2 23 -4z m1577 -18 c0 -14 -4 -25 -9
-25 -4 0 -6 11 -3 25 2 14 6 25 8 25 2 0 4 -11 4 -25z m-1597 -22 c-29 -2 -77
-2 -105 0 -29 2 -6 3 52 3 58 0 81 -1 53 -3z m574 -129 c-3 -3 -12 -4 -19 -1
-8 3 -5 6 6 6 11 1 17 -2 13 -5z m190 0 c-3 -3 -12 -4 -19 -1 -8 3 -5 6 6 6
11 1 17 -2 13 -5z"/>
<path d="M2254 2346 c-3 -8 -4 -23 -1 -33 3 -12 5 -9 6 9 1 27 3 27 74 31 l72
3 -73 2 c-55 2 -74 -1 -78 -12z"/>
<path d="M3388 2353 c23 -2 61 -2 85 0 23 2 4 4 -43 4 -47 0 -66 -2 -42 -4z"/>
<path d="M3362 2290 c0 -14 2 -19 5 -12 2 6 2 18 0 25 -3 6 -5 1 -5 -13z"/>
<path d="M1712 2245 c0 -16 2 -22 5 -12 2 9 2 23 0 30 -3 6 -5 -1 -5 -18z"/>
<path d="M3724 3330 c0 -52 1 -74 3 -47 2 26 2 68 0 95 -2 26 -3 4 -3 -48z"/>
<path d="M961 3396 c-14 -16 -9 -372 5 -386 6 -6 20 -13 30 -14 37 -6 44 17
46 151 l2 128 5 -120 5 -120 6 135 5 135 40 -2 c34 -2 36 -1 15 6 -17 6 16 9
98 10 133 1 152 8 152 54 0 21 -6 25 -42 31 -71 12 -356 6 -367 -8z m344 -26
c8 -13 19 -12 -132 -19 -80 -4 -137 -11 -144 -18 -7 -7 -14 -64 -17 -153 -3
-97 -8 -140 -16 -137 -7 3 -11 55 -11 161 0 128 3 158 15 166 20 13 297 13
305 0z"/>
<path d="M3463 3330 c0 -47 2 -66 4 -42 2 23 2 61 0 85 -2 23 -4 4 -4 -43z"/>
<path d="M3900 3405 c-8 -2 -31 -6 -52 -10 -36 -6 -38 -10 -24 -52 7 -23 11
-23 161 -23 130 0 154 -2 159 -16 3 -9 6 -77 6 -152 0 -75 4 -142 8 -148 4 -7
18 -8 39 -2 l32 8 0 194 c0 191 0 194 -22 200 -22 6 -279 6 -307 1z m288 -34
c40 -15 -259 -29 -302 -14 -40 13 33 21 169 18 72 -2 131 -4 133 -4z m12 -186
c0 -139 -12 -185 -24 -88 -8 67 3 235 15 227 5 -3 9 -65 9 -139z"/>
<path d="M1208 3303 c12 -2 30 -2 40 0 9 3 -1 5 -23 4 -22 0 -30 -2 -17 -4z"/>
<path d="M3898 3303 c12 -2 32 -2 45 0 12 2 2 4 -23 4 -25 0 -35 -2 -22 -4z"/>
<path d="M4038 3303 c6 -2 18 -2 25 0 6 3 1 5 -13 5 -14 0 -19 -2 -12 -5z"/>
<path d="M2884 3110 c0 -107 2 -151 3 -97 2 53 2 141 0 195 -1 53 -3 9 -3 -98z"/>
<path d="M4242 3245 c0 -16 2 -22 5 -12 2 9 2 23 0 30 -3 6 -5 -1 -5 -18z"/>
<path d="M3463 3120 c0 -41 2 -58 4 -37 2 20 2 54 0 75 -2 20 -4 3 -4 -38z"/>
<path d="M3724 2250 c0 -118 2 -167 3 -107 2 59 2 155 0 215 -1 59 -3 10 -3
-108z"/>
<path d="M4156 2278 c-12 -17 -16 -50 -16 -144 0 -103 -3 -123 -17 -136 -13
-11 -53 -17 -148 -22 -160 -8 -152 -7 -152 -20 0 -6 -4 -18 -7 -27 -4 -9 1
-24 12 -37 18 -21 27 -22 185 -22 184 0 217 7 217 49 1 14 0 98 0 186 -1 132
-4 163 -17 177 -21 24 -39 23 -57 -4z m46 -45 c2 -10 5 -81 7 -158 3 -191 14
-181 -185 -178 -157 2 -192 9 -166 36 9 8 55 12 150 13 75 1 140 2 143 3 4 1
10 62 14 137 4 76 9 143 12 150 7 19 20 17 25 -3z"/>
<path d="M971 2277 c-12 -15 -18 -383 -6 -395 4 -4 79 -8 168 -10 131 -3 169
-1 200 12 28 12 37 22 37 40 0 31 -27 36 -186 36 l-124 0 -2 148 -2 147 -6
-145 -6 -145 -2 156 c-2 133 -4 158 -18 163 -25 9 -41 7 -53 -7z m35 -254 c-5
-72 -4 -82 11 -86 10 -2 81 -5 158 -6 77 -1 142 -5 145 -7 2 -3 -2 -9 -10 -14
-19 -12 -280 -11 -302 1 -16 9 -18 25 -17 162 1 133 3 145 11 92 5 -33 7 -97
4 -142z"/>
<path d="M2803 2155 c0 -33 2 -45 4 -27 2 18 2 45 0 60 -2 15 -4 0 -4 -33z"/>
<path d="M2251 2064 c0 -11 3 -14 6 -6 3 7 2 16 -1 19 -3 4 -6 -2 -5 -13z"/>
<path d="M2802 2060 c0 -14 2 -19 5 -12 2 6 2 18 0 25 -3 6 -5 1 -5 -13z"/>
<path d="M1668 1993 c68 -2 176 -2 240 0 64 1 9 3 -123 3 -132 0 -185 -2 -117
-3z"/>
<path d="M2138 1993 c6 -2 18 -2 25 0 6 3 1 5 -13 5 -14 0 -19 -2 -12 -5z"/>
<path d="M2508 1993 c7 -3 16 -2 19 1 4 3 -2 6 -13 5 -11 0 -14 -3 -6 -6z"/>
<path d="M2698 1993 c7 -3 16 -2 19 1 4 3 -2 6 -13 5 -11 0 -14 -3 -6 -6z"/>
<path d="M3033 1993 c9 -2 25 -2 35 0 9 3 1 5 -18 5 -19 0 -27 -2 -17 -5z"/>
</g>
</svg>
